<svg width="63" height="63" viewBox="0 0 63 63" fill="none" xmlns="http://www.w3.org/2000/svg">
<circle cx="31.5" cy="31.5" r="31.5" fill="#F4F4F4"/>
<path d="M32.0005 44.875C26.1165 44.875 15.25 40.4415 15.25 34.125C15.25 27.808 26.1165 23.375 32.0005 23.375C37.8835 23.375 48.7505 27.808 48.7505 34.125C48.7505 40.4415 37.8835 44.875 32.0005 44.875ZM32.0005 25.375C26.443 25.375 17.25 29.4645 17.25 34.125C17.25 38.785 26.4435 42.875 32.0005 42.875C37.557 42.875 46.7505 38.785 46.7505 34.125C46.7505 29.4645 37.557 25.375 32.0005 25.375Z" fill="#004000"/>
<path d="M32.0005 39.4585C29.105 39.4585 26.75 37.104 26.75 34.2085C26.75 31.3135 29.1055 28.9585 32.0005 28.9585C34.895 28.9585 37.2505 31.3135 37.2505 34.2085C37.2505 37.104 34.895 39.4585 32.0005 39.4585ZM32.0005 29.9585C29.6565 29.9585 27.75 31.8655 27.75 34.2085C27.75 36.5525 29.6565 38.4585 32.0005 38.4585C34.3435 38.4585 36.2505 36.552 36.2505 34.2085C36.2505 31.8655 34.3435 29.9585 32.0005 29.9585Z" fill="#004000"/>
<path d="M30.0366 32.9045C29.9156 32.9045 29.7946 32.8605 29.6981 32.7725C29.4951 32.585 29.4816 32.2685 29.6686 32.0655C29.7686 31.957 29.8761 31.8545 29.9906 31.761C30.2046 31.585 30.5196 31.6155 30.6946 31.8295C30.8706 32.0425 30.8396 32.358 30.6266 32.5335C30.5476 32.598 30.4731 32.6685 30.4046 32.7425C30.3061 32.85 30.1711 32.9045 30.0366 32.9045Z" fill="#004000"/>
<path d="M32.0005 37.375C30.2535 37.375 28.833 35.954 28.833 34.208C28.833 33.9315 29.057 33.708 29.333 33.708C29.6095 33.708 29.833 33.9315 29.833 34.208C29.833 35.4035 30.8055 36.375 32.0005 36.375C32.277 36.375 32.5005 36.5985 32.5005 36.875C32.5005 37.1515 32.277 37.375 32.0005 37.375Z" fill="#004000"/>
<path d="M31.938 22.125C31.3855 22.125 30.938 21.677 30.938 21.125V18.125C30.938 17.573 31.3855 17.125 31.938 17.125C32.49 17.125 32.938 17.573 32.938 18.125V21.125C32.938 21.677 32.4895 22.125 31.938 22.125Z" fill="#004000"/>
<path d="M26.1764 22.465C25.8104 22.465 25.4579 22.264 25.2824 21.9145L24.3564 20.0745C24.1079 19.581 24.3064 18.98 24.8004 18.7315C25.2929 18.4825 25.8944 18.681 26.1434 19.175L27.0694 21.015C27.3174 21.5085 27.1189 22.1095 26.6254 22.358C26.4809 22.4305 26.3274 22.465 26.1764 22.465Z" fill="#004000"/>
<path d="M20.3419 24.7835C20.0679 24.7835 19.7949 24.6715 19.5979 24.452L18.2979 23.005C17.9289 22.594 17.9624 21.9615 18.3734 21.593C18.7834 21.223 19.4159 21.257 19.7854 21.668L21.0854 23.115C21.4544 23.526 21.4204 24.1585 21.0099 24.527C20.8189 24.699 20.5799 24.7835 20.3419 24.7835Z" fill="#004000"/>
<path d="M37.2906 22.465C37.1391 22.465 36.9861 22.431 36.8416 22.358C36.3486 22.11 36.1501 21.509 36.3981 21.015L37.3241 19.175C37.5711 18.6825 38.1716 18.482 38.6671 18.7315C39.1601 18.9795 39.3596 19.5805 39.1106 20.0745L38.1846 21.9145C38.0096 22.2635 37.6566 22.465 37.2906 22.465Z" fill="#004000"/>
<path d="M43.1245 24.7835C42.887 24.7835 42.648 24.699 42.4565 24.527C42.0465 24.1585 42.012 23.526 42.3815 23.115L43.6815 21.668C44.0505 21.258 44.6825 21.223 45.0935 21.593C45.5045 21.9615 45.538 22.594 45.1685 23.005L43.8685 24.452C43.6715 24.672 43.399 24.7835 43.1245 24.7835Z" fill="#004000"/>
</svg>
