<svg width="66" height="66" viewBox="0 0 66 66" fill="none" xmlns="http://www.w3.org/2000/svg">
<path d="M9.00084 0.000843957C8.23322 0.000843957 7.46475 0.29325 6.87975 0.87975L0.87975 6.87975C-0.29325 8.05275 -0.29325 9.95194 0.87975 11.1219L22.7587 33.0008L0.87975 54.8797C-0.29325 56.0527 -0.29325 57.9519 0.87975 59.1219L6.87975 65.1219C8.05275 66.2949 9.95194 66.2949 11.1219 65.1219L33.0008 43.243L54.8797 65.1219C56.0497 66.2949 57.9519 66.2949 59.1219 65.1219L65.1219 59.1219C66.2949 57.9489 66.2949 56.0497 65.1219 54.8797L43.243 33.0008L65.1219 11.1219C66.2949 9.95194 66.2949 8.04975 65.1219 6.87975L59.1219 0.87975C57.9489 -0.29325 56.0497 -0.29325 54.8797 0.87975L33.0008 22.7587L11.1219 0.87975C10.5354 0.29325 9.76847 0.000843957 9.00084 0.000843957Z" fill="white"/>
</svg>
