<svg width="63" height="63" viewBox="0 0 63 63" fill="none" xmlns="http://www.w3.org/2000/svg">
<circle cx="31.5" cy="31.5" r="31.5" fill="#F4F4F4"/>
<g clip-path="url(#clip0_335_170)">
<path d="M46.9999 25.36H37.6399V16H38.3609V24.131L46.7459 15.746L47.2559 16.255L38.8689 24.64H46.9999V25.36ZM37.3599 31C37.3599 28.044 34.9549 25.64 31.9999 25.64C29.0439 25.64 26.6399 28.044 26.6399 31C26.6399 33.955 29.0439 36.36 31.9999 36.36C34.9549 36.36 37.3599 33.955 37.3599 31ZM36.6399 31C36.6399 33.559 34.5589 35.64 31.9999 35.64C29.4409 35.64 27.3599 33.559 27.3599 31C27.3599 28.441 29.4419 26.36 31.9999 26.36C34.5579 26.36 36.6399 28.441 36.6399 31ZM47.3599 31C47.3599 29.647 47.1689 28.269 46.7909 26.904L46.0979 27.095C46.4569 28.398 46.6399 29.711 46.6399 30.999C46.6399 39.071 40.0729 45.639 31.9999 45.639C23.9269 45.64 17.3599 39.072 17.3599 31C17.3599 22.927 23.9269 16.36 31.9999 16.36C33.2869 16.36 34.6009 16.543 35.9039 16.903L36.0949 16.209C34.7289 15.832 33.3519 15.64 31.9999 15.64C23.5299 15.64 16.6399 22.53 16.6399 31C16.6399 39.47 23.5299 46.36 31.9999 46.36C40.4699 46.36 47.3599 39.47 47.3599 31ZM42.3599 31C42.3599 29.567 42.0679 28.172 41.4919 26.856L40.8319 27.144C41.3679 28.37 41.6399 29.667 41.6399 31C41.6399 36.315 37.3159 40.64 31.9999 40.64C26.6839 40.64 22.3599 36.315 22.3599 31C22.3599 25.685 26.6849 21.36 31.9999 21.36C33.3329 21.36 34.6309 21.632 35.8549 22.168L36.1439 21.509C34.8269 20.932 33.4339 20.64 31.9999 20.64C26.2879 20.64 21.6399 25.288 21.6399 31C21.6399 36.713 26.2869 41.36 31.9999 41.36C37.7129 41.36 42.3599 36.713 42.3599 31ZM31.9999 30C31.4479 30 30.9999 30.448 30.9999 31C30.9999 31.552 31.4479 32 31.9999 32C32.5519 32 32.9999 31.552 32.9999 31C32.9999 30.448 32.5519 30 31.9999 30Z" fill="#004000" stroke="#004000" stroke-width="0.96"/>
</g>
<defs>
<clipPath id="clip0_335_170">
<rect width="32" height="32" fill="white" transform="translate(16 15)"/>
</clipPath>
</defs>
</svg>
